<svg width="17" height="20" viewBox="0 0 17 20" fill="none" xmlns="http://www.w3.org/2000/svg">
<path fill-rule="evenodd" clip-rule="evenodd" d="M8.2995 1.59976C7.73948 1.59976 7.19868 1.82709 6.7971 2.23776C6.39493 2.64903 6.16589 3.21057 6.16589 3.79976V4.99976H10.4331V3.79976C10.4331 3.21057 10.2041 2.64903 9.80189 2.23776C9.40031 1.82709 8.85951 1.59976 8.2995 1.59976ZM12.0331 4.99976V3.79976C12.0331 2.79764 11.644 1.83306 10.9459 1.11911C10.2471 0.404564 9.29556 -0.000244141 8.2995 -0.000244141C7.30343 -0.000244141 6.35188 0.404564 5.65315 1.11911C4.955 1.83306 4.56589 2.79764 4.56589 3.79976V4.99976H2.75606M4.56589 6.59976H2.75596C2.59211 6.59974 2.42952 6.63592 2.27934 6.70649C2.1291 6.7771 1.99409 6.88078 1.88434 7.01158C1.77454 7.14244 1.69277 7.29719 1.64572 7.4656C1.59868 7.634 1.58772 7.81117 1.6138 7.98466C1.6138 7.9847 1.61379 7.98462 1.6138 7.98466L2.84102 16.1367C2.91982 16.6606 3.17894 17.1349 3.56681 17.4752C3.95423 17.8152 4.44479 17.9997 4.94932 17.9998C4.94933 17.9998 4.94931 17.9998 4.94932 17.9998H11.6497C12.1543 17.9999 12.6453 17.8154 13.0329 17.4754C13.4209 17.1351 13.6801 16.6609 13.7589 16.1368L14.9862 7.98479C15.0123 7.81125 15.0013 7.63404 14.9542 7.4656C14.9072 7.29719 14.8254 7.14244 14.7156 7.01158C14.6059 6.88078 14.4709 6.7771 14.3206 6.70649C14.1705 6.63592 14.008 6.59974 13.8441 6.59976H12.0331V8.79976C12.0331 9.24158 11.6749 9.59976 11.2331 9.59976C10.7913 9.59976 10.4331 9.24158 10.4331 8.79976V6.59976H6.16589V8.79976C6.16589 9.24158 5.80772 9.59976 5.36589 9.59976C4.92406 9.59976 4.56589 9.24158 4.56589 8.79976V6.59976ZM12.0331 4.99976H13.8439C13.844 4.99976 13.8439 4.99976 13.8439 4.99976C14.244 4.99972 14.6389 5.08819 15.0011 5.25842C15.3633 5.42864 15.6838 5.67625 15.9413 5.98314C16.1988 6.28997 16.3874 6.64894 16.4952 7.03508C16.6031 7.42119 16.628 7.82623 16.5684 8.22272L15.3411 16.3747C15.3411 16.3748 15.3411 16.3747 15.3411 16.3747C15.2069 17.2675 14.7639 18.0854 14.088 18.6783C13.4116 19.2716 12.5468 19.6 11.6497 19.5998C11.6496 19.5998 11.6498 19.5998 11.6497 19.5998H4.94932C4.05238 19.5997 3.18774 19.2712 2.51155 18.6779C1.83582 18.085 1.39311 17.2674 1.25885 16.3748C1.25885 16.3748 1.25886 16.3749 1.25885 16.3748L0.0316256 8.22285C-0.0280014 7.82635 -0.00313763 7.42119 0.104732 7.03508C0.212611 6.64894 0.401203 6.28997 0.658659 5.98314C0.916162 5.67625 1.23663 5.42864 1.59884 5.25842C1.96108 5.08819 2.35596 4.99972 2.75606 4.99976" fill="white"/>
</svg>
