<svg width="20" height="18" viewBox="0 0 20 18" fill="none" xmlns="http://www.w3.org/2000/svg">
<path fill-rule="evenodd" clip-rule="evenodd" d="M10.0998 -0.000244141C10.4032 -0.000244141 10.6804 0.171302 10.8158 0.44275L13.2554 5.33503L18.7134 6.1179C19.0159 6.16129 19.2673 6.37326 19.3612 6.66412C19.455 6.95498 19.375 7.2739 19.1549 7.48594L15.2046 11.2915L16.1357 16.6631C16.1876 16.963 16.065 17.2663 15.8193 17.4458C15.5736 17.6253 15.2473 17.6498 14.9775 17.5091L10.1054 14.9682L5.2215 17.5094C4.95169 17.6498 4.6256 17.6251 4.38007 17.4456C4.13453 17.266 4.01204 16.9628 4.06398 16.6631L4.99504 11.2915L1.0448 7.48594C0.824691 7.2739 0.744629 6.95498 0.838486 6.66412C0.932342 6.37326 1.18371 6.16129 1.48624 6.1179L6.9443 5.33503L9.3839 0.44275C9.51927 0.171302 9.7965 -0.000244141 10.0998 -0.000244141ZM10.0998 2.59244L8.18897 6.42439C8.07176 6.65944 7.84663 6.82198 7.58664 6.85928L3.33368 7.46929L6.41082 10.4337C6.602 10.6179 6.68937 10.8849 6.64403 11.1465L5.91645 15.3442L9.73651 13.3564C9.9682 13.2359 10.2441 13.236 10.4757 13.3568L14.2829 15.3423L13.5556 11.1465C13.5103 10.8849 13.5977 10.6179 13.7888 10.4337L16.866 7.46929L12.613 6.85928C12.353 6.82198 12.1279 6.65944 12.0107 6.42439L10.0998 2.59244Z" fill="white"/>
</svg>
