<svg width="13" height="18" viewBox="0 0 13 18" fill="none" xmlns="http://www.w3.org/2000/svg">
<path fill-rule="evenodd" clip-rule="evenodd" d="M3.55075 1.26683C4.39017 0.452851 5.52356 -0.000244141 6.70039 -0.000244141C7.87722 -0.000244141 9.01061 0.452851 9.85003 1.26683C10.6903 2.08163 11.1671 3.19206 11.1671 4.35531C11.1671 5.51856 10.6903 6.62899 9.85003 7.44379C9.01061 8.25777 7.87722 8.71087 6.70039 8.71087C5.52356 8.71087 4.39017 8.25777 3.55075 7.44379C2.71049 6.62899 2.23372 5.51856 2.23372 4.35531C2.23372 3.19206 2.71049 2.08163 3.55075 1.26683ZM6.70039 1.59976C5.9323 1.59976 5.20043 1.89587 4.66458 2.41547C4.12957 2.93427 3.83372 3.63257 3.83372 4.35531C3.83372 5.07805 4.12957 5.77635 4.66458 6.29515C5.20043 6.81476 5.9323 7.11087 6.70039 7.11087C7.46849 7.11087 8.20035 6.81476 8.7362 6.29515C9.27121 5.77635 9.56706 5.07805 9.56706 4.35531C9.56706 3.63257 9.27121 2.93427 8.7362 2.41547C8.20035 1.89587 7.46849 1.59976 6.70039 1.59976ZM4.86706 12.2664C4.09896 12.2664 3.3671 12.5625 2.83125 13.0821C2.29624 13.6009 2.00039 14.2992 2.00039 15.022V16.7998C2.00039 17.2416 1.64222 17.5998 1.20039 17.5998C0.758563 17.5998 0.400391 17.2416 0.400391 16.7998V15.022C0.400391 13.8587 0.877159 12.7483 1.71742 11.9335C2.55684 11.1195 3.69023 10.6664 4.86706 10.6664H8.53372C9.71055 10.6664 10.8439 11.1195 11.6834 11.9335C12.5236 12.7483 13.0004 13.8587 13.0004 15.022V16.7998C13.0004 17.2416 12.6422 17.5998 12.2004 17.5998C11.7586 17.5998 11.4004 17.2416 11.4004 16.7998V15.022C11.4004 14.2992 11.1045 13.6009 10.5695 13.0821C10.0337 12.5625 9.30182 12.2664 8.53372 12.2664H4.86706Z" fill="white"/>
</svg>
