<svg width="18" height="18" viewBox="0 0 18 18" fill="none" xmlns="http://www.w3.org/2000/svg">
<path fill-rule="evenodd" clip-rule="evenodd" d="M5.30335 0.629018C6.3063 0.213579 7.38127 -0.000244141 8.46686 -0.000244141C9.55246 -0.000244141 10.6274 0.213579 11.6304 0.629018C12.6333 1.04446 13.5446 1.65338 14.3123 2.42101C15.0799 3.18864 15.6888 4.09995 16.1043 5.10291C16.5197 6.10587 16.7335 7.18083 16.7335 8.26642C16.7335 9.35202 16.5197 10.427 16.1043 11.4299C15.7912 12.1857 15.3684 12.8893 14.8505 13.5187L17.5659 16.2341C17.8783 16.5465 17.8783 17.053 17.5659 17.3654C17.2535 17.6779 16.7469 17.6779 16.4345 17.3654L13.7192 14.6501C13.0898 15.1679 12.3861 15.5908 11.6304 15.9038C10.6274 16.3193 9.55246 16.5331 8.46686 16.5331C7.38127 16.5331 6.3063 16.3193 5.30335 15.9038C4.30039 15.4884 3.38908 14.8795 2.62145 14.1118C1.85382 13.3442 1.2449 12.4329 0.829458 11.4299C0.414019 10.427 0.200195 9.35202 0.200195 8.26642C0.200195 7.18083 0.414019 6.10586 0.829458 5.10291C1.2449 4.09995 1.85381 3.18864 2.62145 2.42101C3.38908 1.65338 4.30039 1.04446 5.30335 0.629018ZM8.46686 1.59976C7.59138 1.59976 6.72448 1.77219 5.91564 2.10723C5.1068 2.44226 4.37187 2.93332 3.75282 3.55238C3.13376 4.17143 2.6427 4.90636 2.30767 5.7152C1.97263 6.52404 1.8002 7.39094 1.8002 8.26642C1.8002 9.1419 1.97263 10.0088 2.30767 10.8176C2.6427 11.6265 3.13376 12.3614 3.75282 12.9805C4.37187 13.5995 5.1068 14.0906 5.91564 14.4256C6.72448 14.7607 7.59138 14.9331 8.46686 14.9331C9.34234 14.9331 10.2092 14.7607 11.0181 14.4256C11.8269 14.0906 12.5618 13.5995 13.1809 12.9805C13.8 12.3614 14.291 11.6265 14.6261 10.8176C14.9611 10.0088 15.1335 9.1419 15.1335 8.26642C15.1335 7.39094 14.9611 6.52404 14.6261 5.7152C14.291 4.90636 13.8 4.17144 13.1809 3.55238C12.5619 2.93332 11.8269 2.44226 11.0181 2.10723C10.2092 1.77219 9.34234 1.59976 8.46686 1.59976Z" fill="white"/>
</svg>
